<?xml version="1.0" encoding="utf-8"?>
<!-- Generator: Adobe Illustrator 25.0.1, SVG Export Plug-In . SVG Version: 6.00 Build 0)  -->
<svg version="1.1" id="Layer_1" xmlns="http://www.w3.org/2000/svg" xmlns:xlink="http://www.w3.org/1999/xlink" x="0px" y="0px"
	 width="16px" height="16px" viewBox="0 0 16 16" enable-background="new 0 0 16 16" xml:space="preserve">
<path fill-rule="evenodd" clip-rule="evenodd" fill="#8080C0" fill-opacity="0.6" d="M1,16h15V9H1V16z"/>
<path fill-rule="evenodd" clip-rule="evenodd" fill="#9AA7B0" fill-opacity="0.8" d="M7,1L3,5h4V1z"/>
<path fill-rule="evenodd" clip-rule="evenodd" fill="#9AA7B0" fill-opacity="0.8" d="M8,1v5H3v2h10V1H8z"/>
<path fill-rule="evenodd" clip-rule="evenodd" fill="#231F20" fill-opacity="0.7" d="M6.6,10h1v2h2v-2h1v5h-1v-2h-2v2h-1V10z"/>
<path fill-rule="evenodd" clip-rule="evenodd" fill="#231F20" fill-opacity="0.7" d="M13.4,12.5c0.7,0,1.1-0.1,1.1-0.8
	S14.1,11,13.4,11h-0.9v1.5H13.4z M11.5,10h2c1.2,0,2,0.6,2,1.6c0,1.6-1,1.9-2.1,1.9h-0.9V15h-1V10z"/>
<path fill-rule="evenodd" clip-rule="evenodd" fill="#231F20" fill-opacity="0.7" d="M3.9,12.5c0.7,0,1.1-0.1,1.1-0.8S4.6,11,3.9,11
	H3v1.5H3.9z M2,10h2c1.2,0,2,0.6,2,1.6c0,1.6-1,1.9-2.1,1.9H3V15H2V10z"/>
</svg>
