<?xml version="1.0" encoding="utf-8"?>
<svg version="1.1"
	 id="svg3430"
	 xmlns="http://www.w3.org/2000/svg" xmlns:xlink="http://www.w3.org/1999/xlink" x="0px" y="0px" width="700px" height="700px"
	 viewBox="0 0 700 700" enable-background="new 0 0 700 700" xml:space="preserve">
<g id="g3438" transform="matrix(1.25,0,0,-1.25,-4.4,394.29875)">
	<g id="g3440">
		<g>
			<defs>
				<path id="SVGID_1_" d="M7,35.4C7-44.9,130.8-110,283.5-110l0,0C436.2-110,560-44.9,560,35.4l0,0c0,80.3-123.8,145.4-276.5,145.4
					l0,0C130.8,180.9,7,115.8,7,35.4"/>
			</defs>
			<clipPath id="SVGID_2_">
				<use xlink:href="#SVGID_1_"  overflow="visible"/>
			</clipPath>
			<g id="g3442" clip-path="url(#SVGID_2_)">
				<g id="g3448">
					<g id="g3450">
						<radialGradient id="path3462_1_" cx="-198.4439" cy="-243.1332" r="1" gradientTransform="matrix(453.8224 0 0 -453.8224 90231.3125 -110209.5391)" gradientUnits="userSpaceOnUse">
							<stop  offset="0" style="stop-color:#AEB2D5"/>
							<stop  offset="0.3" style="stop-color:#AEB2D5"/>
							<stop  offset="0.75" style="stop-color:#484C89"/>
							<stop  offset="1" style="stop-color:#484C89"/>
						</radialGradient>
						<path id="path3462" fill="url(#path3462_1_)" d="M7,35.4C7-44.9,130.8-110,283.5-110l0,0C436.2-110,560-44.9,560,35.4l0,0
							c0,80.3-123.8,145.4-276.5,145.4l0,0C130.8,180.9,7,115.8,7,35.4"/>
					</g>
				</g>
			</g>
		</g>
	</g>
	<g id="g3464">
		<g>
			<defs>
				<rect id="SVGID_3_" x="-76.5" y="-167.1" width="720" height="405"/>
			</defs>
			<clipPath id="SVGID_4_">
				<use xlink:href="#SVGID_3_"  overflow="visible"/>
			</clipPath>
			<g id="g3466" clip-path="url(#SVGID_4_)">
				<g id="g3472" transform="translate(288,27.3594)">
					<path id="path3474" fill="#777BB3" d="M-4.5-126.6c146.7,0,265.7,60.3,265.7,134.6c0,74.4-119,134.6-265.7,134.6
						S-270.2,82.4-270.2,8.1C-270.2-66.3-151.2-126.6-4.5-126.6"/>
				</g>
			</g>
		</g>
	</g>
	<g id="g3476">
		<g>
			<defs>
				<rect id="SVGID_5_" x="-76.5" y="-167.1" width="720" height="405"/>
			</defs>
			<clipPath id="SVGID_6_">
				<use xlink:href="#SVGID_5_"  overflow="visible"/>
			</clipPath>
			<g id="g3478" clip-path="url(#SVGID_6_)">
				<g id="g3484" transform="translate(161.7344,145.3066)">
					<path id="path3486" d="M-4.5-126.6c12.1,0,21.1,2.2,26.8,6.6c5.6,4.3,9.5,11.9,11.6,22.4c1.9,9.8,1.2,16.7-2.2,20.3
						c-3.4,3.8-10.8,5.7-21.9,5.7H-9.5l-10.7-55H-4.5z M-67.5-194.3c-0.9,0-1.7,0.4-2.3,1.1c-0.6,0.7-0.8,1.6-0.6,2.5L-42.2-45
						c0.3,1.4,1.5,2.4,2.9,2.4h61.1c19.2,0,33.5-5.2,42.4-15.5c9-10.3,11.8-24.8,8.3-42.9c-1.4-7.4-3.9-14.3-7.3-20.4
						c-3.4-6.2-8-11.8-13.5-16.9c-6.6-6.2-14.1-10.7-22.2-13.3c-8-2.6-18.3-3.9-30.5-3.9h-24.7l-7.1-36.3c-0.3-1.4-1.5-2.4-2.9-2.4
						H-67.5z"/>
				</g>
				<g id="g3488" transform="translate(159.2236,197.3071)">
					<path id="path3490" fill="#FFFFFF" d="M-4.5-126.6h16.8c13.4,0,18.1-2.9,19.7-4.7c2.6-2.9,3.1-9.1,1.4-17.8
						c-1.9-9.8-5.4-16.7-10.5-20.5c-5.2-4-13.6-6-24.9-6h-12L-4.5-126.6z M24.4-91.6h-61.1c-2.9,0-5.3-2-5.9-4.9l-28.3-145.8
						c-0.3-1.8,0.1-3.6,1.3-5c1.1-1.4,2.8-2.2,4.6-2.2h31.8c2.9,0,5.3,2,5.9,4.9l6.6,33.9H1.4c12.6,0,23.2,1.4,31.5,4.1
						c8.5,2.8,16.4,7.5,23.4,14c5.8,5.3,10.5,11.2,14.1,17.7c3.6,6.4,6.2,13.6,7.7,21.3c3.7,19.1,0.7,34.4-9,45.5
						C59.5-97.1,44.4-91.6,24.4-91.6 M-21.3-181.6H-2c12.8,0,22.3,2.4,28.6,7.2c6.3,4.8,10.5,12.9,12.7,24.2
						c2.1,10.8,1.1,18.5-2.9,22.9c-4,4.5-12.1,6.7-24.1,6.7H-9.4L-21.3-181.6 M24.4-97.6c18.4,0,31.8-4.8,40.2-14.5
						c8.4-9.6,11-23.1,7.6-40.4c-1.4-7.1-3.7-13.6-7-19.5c-3.3-5.9-7.6-11.3-12.9-16.2c-6.3-5.9-13.4-10.2-21.1-12.7
						c-7.8-2.5-17.6-3.8-29.6-3.8h-27.2l-7.5-38.8H-65l28.3,145.8H24.4"/>
				</g>
				<g id="g3492" transform="translate(311.583,116.3066)">
					<path id="path3494" d="M-4.5-126.6c-0.9,0-1.7,0.4-2.3,1.1c-0.6,0.7-0.8,1.6-0.6,2.5L5.1-58.5C6.3-52.4,6-48,4.3-46.1
						c-1.1,1.1-4.2,3-13.6,3H-32l-15.8-81.1c-0.3-1.4-1.5-2.4-2.9-2.4h-31.5c-0.9,0-1.7,0.4-2.3,1.1c-0.6,0.7-0.8,1.6-0.6,2.5
						l28.3,145.8c0.3,1.4,1.5,2.4,2.9,2.4h31.5c0.9,0,1.7-0.4,2.3-1.1c0.6-0.7,0.8-1.6,0.6-2.5l-6.8-35.2h24.4
						c18.6,0,31.2-3.3,38.6-10c7.5-6.9,9.8-17.9,6.9-32.7l-13.2-67.8c-0.3-1.4-1.5-2.4-2.9-2.4H-4.5z"/>
				</g>
				<g id="g3496" transform="translate(293.6611,271.0571)">
					<path id="path3498" fill="#FFFFFF" d="M-4.5-126.6H-36c-2.9,0-5.3-2-5.9-4.9l-28.3-145.8c-0.3-1.8,0.1-3.6,1.3-5
						s2.8-2.2,4.6-2.2h31.5c2.9,0,5.3,2,5.9,4.9l15.3,78.6H8.6c9.4,0,11.3-2,11.4-2.1c0.6-0.6,1.3-3.4,0.1-9.8L7.6-277.2
						c-0.3-1.8,0.1-3.6,1.3-5s2.8-2.2,4.6-2.2h32c2.9,0,5.3,2,5.9,4.9l13.2,67.8c3.1,15.9,0.4,27.9-7.9,35.5
						c-7.9,7.3-21.2,10.8-40.6,10.8H-4.7l6.1,31.6c0.3,1.8-0.1,3.6-1.3,5C-1-127.4-2.7-126.6-4.5-126.6 M-4.5-132.6l-7.5-38.8h28.1
						c17.7,0,29.8-3.1,36.5-9.2c6.7-6.2,8.7-16.1,6-29.9l-13.2-67.8h-32L26-213.8c1.4,7.3,0.9,12.3-1.6,15c-2.5,2.7-7.7,4-15.8,4
						h-25.2l-16.2-83.5h-31.5L-36-132.6H-4.5"/>
				</g>
				<g id="g3500" transform="translate(409.5498,145.3066)">
					<path id="path3502" d="M-4.5-126.6c12.1,0,21.1,2.2,26.8,6.6c5.6,4.3,9.5,11.9,11.6,22.4c1.9,9.8,1.2,16.7-2.2,20.3
						c-3.4,3.8-10.8,5.7-21.9,5.7H-9.5l-10.7-55H-4.5z M-67.5-194.3c-0.9,0-1.7,0.4-2.3,1.1c-0.6,0.7-0.8,1.6-0.6,2.5L-42.2-45
						c0.3,1.4,1.5,2.4,2.9,2.4h61.1c19.2,0,33.5-5.2,42.4-15.5c9-10.3,11.8-24.8,8.3-42.9c-1.4-7.4-3.9-14.3-7.3-20.4
						c-3.4-6.2-8-11.8-13.5-16.9c-6.6-6.2-14.1-10.7-22.2-13.3c-8-2.6-18.3-3.9-30.5-3.9h-24.7l-7.1-36.3c-0.3-1.4-1.5-2.4-2.9-2.4
						H-67.5z"/>
				</g>
				<g id="g3504" transform="translate(407.0391,197.3071)">
					<path id="path3506" fill="#FFFFFF" d="M-4.5-126.6h16.8c13.4,0,18.1-2.9,19.7-4.7c2.6-2.9,3.1-9.1,1.4-17.8
						c-1.9-9.8-5.4-16.7-10.5-20.5c-5.2-4-13.6-6-24.9-6h-12L-4.5-126.6z M24.4-91.6h-61.1c-2.9,0-5.3-2-5.9-4.9l-28.3-145.8
						c-0.3-1.8,0.1-3.6,1.3-5c1.1-1.4,2.8-2.2,4.6-2.2h31.8c2.9,0,5.3,2,5.9,4.9l6.6,33.9H1.4c12.6,0,23.2,1.4,31.5,4.1
						c8.5,2.8,16.4,7.5,23.4,14c5.8,5.3,10.5,11.2,14.1,17.7c3.6,6.4,6.2,13.6,7.7,21.3c3.7,19.1,0.7,34.4-9,45.5
						C59.5-97.1,44.4-91.6,24.4-91.6 M-21.3-181.6H-2c12.8,0,22.3,2.4,28.6,7.2c6.3,4.8,10.5,12.9,12.7,24.2
						c2.1,10.8,1.1,18.5-2.9,22.9c-4,4.5-12.1,6.7-24.1,6.7H-9.4L-21.3-181.6 M24.4-97.6c18.4,0,31.8-4.8,40.2-14.5
						s11-23.1,7.6-40.4c-1.4-7.1-3.7-13.6-7-19.5c-3.3-5.9-7.6-11.3-12.9-16.2c-6.3-5.9-13.4-10.2-21.1-12.7
						c-7.8-2.5-17.6-3.8-29.6-3.8h-27.2l-7.5-38.8H-65l28.3,145.8H24.4"/>
				</g>
			</g>
		</g>
	</g>
</g>
</svg>
